<svg version="1" xmlns="http://www.w3.org/2000/svg" width="1450.667" height="1450.667" viewBox="0 0 1088.000000 1088.000000"><path d="M528.8 67.6c-.3.2-3.6.7-7.4 1-3.8.2-8.2.7-9.9.9-1.6.3-5.7.7-9 1.1-3.3.3-7.1.8-8.5 1-1.4.3-4.1.7-6 1-1.9.3-7.1 1.3-11.5 2.1-4.4.9-8.9 1.6-10 1.7-1.1.1-2.4.4-3 .8-.5.3-2.6.9-4.5 1.2-1.9.3-4.4.8-5.5 1-2.4.6-13.3 3.4-15.7 4.1-1 .3-2.6.7-3.5.9-4.2 1-27.1 8.5-31.3 10.3-.8.3-1.9.7-2.5.9-.5.1-2.7.9-4.7 1.8-2.1.9-4.1 1.7-4.5 1.8-.8.1-7.8 3.2-16.3 7-2.4 1.1-5 2.1-5.7 2.2-.8.1-2.3 1-3.4 1.9-1 .9-2.3 1.7-2.7 1.7-1.2 0-11.2 5-14.2 7.1-1.4.9-2.9 1.8-3.5 1.9-1.9.4-19.1 10.2-20.7 11.8-.7.7-1.8 1.2-2.5 1.2s-1.3.4-1.3.8c0 .5-2 1.9-4.5 3.1-2.5 1.2-4.5 2.7-4.5 3.2s-.5.9-1.1.9c-.9 0-12.5 7.5-13.9 9-.3.3-2.1 1.7-4 3-1.9 1.4-4.2 3-5 3.7-23.3 18.6-31.6 25.9-46 40.4-12.7 12.8-22 22.9-21.2 22.9.4 0-.4 1-1.8 2.3-2.3 2-7.1 7.8-14 16.8-1.4 1.8-2.9 3.7-3.5 4.3-.5.6-3 4-5.4 7.6-2.5 3.6-5 6.8-5.5 7.2-.7.5-.7.8-.1.8.7 0 .7.3 0 .8-1.1.8-8.5 11.8-8.5 12.7 0 .2-1.6 2.9-3.5 6-2 3-3.2 5.5-2.8 5.5.4 0 .3.4-.3.8-1.6 1-12.4 22.9-11.7 23.6.4.3.2.6-.3.6-.6 0-1.6 1.7-2.3 3.7-.7 2.1-1.9 5.1-2.7 6.8-3.1 6.8-8.3 21.9-7.8 22.7.3.4.1.8-.4.8s-1.3 1.5-1.7 3.2c-.4 1.8-.9 3.7-1.1 4.3-.1.5-.5 1.9-.8 3-.2 1.1-.9 3.3-1.6 5-.6 1.6-1.1 3.1-1.1 3.2.1.2.1.4 0 .5 0 .2-.2 1-.4 1.8-.8 3.6-1.5 6.8-2.4 10.5-.6 2.2-1.3 5.6-1.6 7.5-.4 1.9-.8 3.9-.9 4.5-.4 1.5-1.6 9.5-2.1 13.5-.2 1.9-.4 3.5-.5 3.5-.5 0-1.8 12.3-2.6 24-.9 14.1-.4 42.8 1.1 51.6.3 2 .8 5.1 1 7 .5 4 1.1 7.6 2.5 13.9.6 2.5 1.2 5.4 1.5 6.5.2 1.1 1.1 4.5 2 7.5.9 3 1.8 6.2 2 7 .2.8.4 1.6.5 1.7.2.2.3.6.4 1 .1.5.4 1.3.8 1.9.4.6.9 2.3 1.2 3.9.3 1.5 1 3.3 1.6 3.9.5.5 1 1.5 1 2.2 0 .6 1.2 3.8 2.7 7 1.4 3.3 2.6 6.2 2.5 6.6-.1.5.3.8.8.8s.9.3.8.7c-.4 1.5 12.8 25.4 14.4 26.1.5.2.8.8.8 1.3 0 .6.5 1.5 1 2.2.6.7 4.1 5.3 7.8 10.2 3.8 5 8.1 10.6 9.8 12.4 7.4 8.4 30.4 30.5 30.4 29.2 0-.3.4-.2.8.4 1.8 2.5 19.1 14.4 28 19.3C260 658.9 273.3 665 284 669c6.3 2.3 12.2 4.4 13 4.7 2.3.9 4.4 1.4 6 1.5.8 0 2 .4 2.5.8.6.4 2.8 1.1 5 1.5 2.2.5 4.3.9 4.8 1 .4.2 1.4.3 2.3.4.8 0 1.2.6.9 1.1-.4.6-1.2.7-1.8.3-.7-.4-1.6-.8-2.2-.8-.8-.1-4.9-.8-11.5-2-5.3-1-32-8.6-36-10.2-.8-.4-1.7-.7-2-.7-.3-.1-1.1-.5-1.7-.9-.7-.5-1.3-.6-1.3-.3 0 .2-3.9-1.1-8.7-3-4.9-1.9-9.4-3.4-10-3.4-.7 0-1.3-.5-1.3-1 0-.6-.8-1-1.8-1s-2.8-.7-4-1.6c-1.2-.8-2.2-1.3-2.2-1 0 .3-2.6-.8-5.7-2.4-3.2-1.7-6.3-3-7-3-.7 0-1.3-.5-1.3-1.1 0-.5-.4-.7-1-.4-.5.3-1 .1-1-.4 0-.6-.5-1.1-1.1-1.1-.6 0-5.4-2.6-10.7-5.7-5.4-3.1-9.9-5.5-10.1-5.4-.2.2-.7-.1-1-.6-.3-.5-5.9-4.6-12.3-9.3-6.5-4.6-11.8-8.7-11.8-9.2 0-.4-.5-.8-1-.8-1.4 0-6.9-5-22.2-20.2-12.7-12.5-12.9-12.6-17-12.3-3.1.2-4.8 1-6.5 2.9-2.7 3.2-2.9 6.8-.8 15.8.8 3.5 1.7 7.8 2 9.7.3 1.9.8 3.7 1 4.1.2.3.6 1.7.9 3.1.3 1.3 1 4.2 1.6 6.4.6 2.2 1.3 4.9 1.5 6 1.2 5.2 10.6 33.3 13.5 40 .7 1.8 2.1 5.2 2.5 6.5 1.7 5 8.3 19.3 15.6 33.5 9.2 18.2 11.3 22 12.2 22.3.4.2.7 1 .7 1.7 0 .8.7 1.8 1.6 2.3.9.5 1.5 1.2 1.5 1.5-.1 1.3 3.3 7.7 4.1 7.7.4 0 .8.5.8 1.1 0 .6 1.1 2.5 2.5 4.3 1.4 1.8 2.5 3.6 2.5 4 0 .4.4 1.2 1 1.9 4.3 5.3 6 7.6 6 8.1 0 .6 2.3 3.6 4.7 6.1.7.8 1.3 1.6 1.3 2 0 .9 8.1 10.9 9.1 11.3.5.2.9.8.9 1.3 0 .8 2.6 4.3 6 7.8.8.9 3.6 4.2 6.3 7.4 2.6 3.3 4.7 5.5 4.7 5 .1-.4.8.5 1.6 2 .8 1.6 2 2.5 2.6 2.1.7-.4.8-.3.4.4s-.2 1.2.4 1.2c.6 0 .8.5.4 1.2-.5.7-.2.9.9.5 1.2-.4 1.4-.2 1 1-.4 1.1-.2 1.4.5.9.7-.4 1.2-.2 1.2.4 0 .6.4.8 1 .5.6-.4.7.1.3 1.1-.5 1.4-.3 1.6 1.1 1.1 1-.4 1.5-.3 1.1.3-.6.9 9.1 10.9 19.1 19.8 2.7 2.3 6.5 5.7 8.4 7.5 2 1.8 5.6 4.8 8 6.7 2.5 1.9 4.7 3.7 5 4 .3.3 2.3 1.9 4.5 3.6 3.9 2.8 4.7 3.5 7.9 6.1.8.7 2 1.3 2.6 1.3.5 0 1 .4 1 .8s1.3 1.6 3 2.5c1.6 1 3.5 2.4 4.3 3.1.7.7 2.9 2.1 4.7 3.1 1.9 1 3.7 2.1 4 2.6.8 1.2 30.3 18.9 31.6 18.9.7 0 1.4.3 1.6.8.5 1.1 29.4 15.2 31.1 15.2.9 0 1.7.3 1.9.8.6 1.5 34.3 14.4 35.2 13.5.3-.4.6-.1.6.6s.6 1.1 1.4.8c.7-.3 1.8-.1 2.3.4.5.5 1.8 1.1 2.9 1.3 1.1.2 4.5 1.2 7.5 2.1 7.6 2.3 27 7.4 32.7 8.5 2.6.5 5.8 1.2 7.2 1.5 1.4.3 3.4.7 4.5.9 1.1.2 3.4.6 5 .9 3.2.7 8.9 1.5 14.5 2.3 5 .6 9 1.5 9 2 0 .7-19.3 19.5-26.5 25.9-10.3 9.1-10.7 9.5-14.4 12.3-1.8 1.5-4.3 3.6-5.5 4.7-1.2 1.1-3.8 3.1-5.6 4.5-6.6 4.8-10 9-10 12.2 0 3.7 2.6 8.3 5.4 9.6 1.7.7 8.1.9 8.1.2 0-.2 3.5-1 7.8-1.7 2-.3 3.7-1 3.7-1.5s.4-.7.9-.4c.4.3 4.8-.6 9.6-2 4.9-1.4 9.7-2.6 10.7-2.7 1-.1 1.8-.4 1.8-.8s1.7-1 3.8-1.4c2-.4 4.3-1.1 4.9-1.7.7-.6 1.3-.8 1.3-.5 0 .4 1.9-.1 4.3-.9 2.3-.9 4.7-1.7 5.2-1.8.6-.2 2.3-.8 3.8-1.4 1.6-.7 3-1.2 3.3-1.2 1.2 0 22.5-8.6 28.8-11.6 1.6-.8 3.3-1.4 3.8-1.4 1.4 0 37.7-18.3 47.2-23.8 4.9-2.9 9.1-5.2 9.3-5.2.2 0 1.9-1 3.6-2.3 4.9-3.4 7-4.7 9-5.3.9-.4 1.7-1 1.7-1.4 0-1 5.7-3.3 8.9-3.6 3.1-.3 5.4-.7 16.9-2.9 10.2-2.1 22.6-5.1 34.2-8.5 5.8-1.7 11.2-3.3 12-3.5 3.9-1 22.2-7.6 30.5-11 1.1-.5 2.2-.9 2.5-1 3.5-1.2 22.6-9.8 23.8-10.7.6-.6 1.2-.7 1.2-.3 0 .4.6.3 1.3-.2.6-.6 6.2-3.6 12.2-6.8 6.1-3.2 14.3-7.8 18.3-10.2 4.1-2.5 7.5-4.3 7.7-4.1.5.5-2.8 9.4-6 16.3-1.5 3.3-2.8 6.6-2.8 7.2 0 .7-.4 1.3-.8 1.3s-1.1 1-1.4 2.2c-2.7 8.8-21.7 43-37.1 66.8-4.7 7.3-5.5 9-5 11.9.8 5 4.6 8.5 9.2 8.3 2-.1 4.8-.9 6.2-1.9 1.4-1 3.2-2.3 4-2.8.9-.6 2.3-1.5 3.1-2.2.9-.7 6.4-4.8 12.4-9.3 12.1-9.1 14-10.6 17.3-13.8 1.3-1.2 2.6-2.2 2.9-2.2.3 0 1.3-.8 2.3-1.7 1-1 5.6-5.2 10.2-9.3 10.3-9.2 26.3-25.3 35-34.9 3.6-4 7.2-8 8.1-8.9 2.3-2.4 20.1-24.6 21.9-27.2 1.3-1.9 4.7-6.5 7.7-10.5 1.3-1.6 13.7-20.5 18.1-27.6 2.3-3.6 4.2-7.1 4.2-7.7 0-.6.4-1.2.9-1.4.9-.3 12.1-20.6 12.1-21.9 0-.5.5-.9 1-.9.6 0 .9-.3.8-.8-.1-.4 2.7-6.5 6.1-13.6 3.4-7.1 6.3-13.4 6.4-14 .1-.6.4-1.3.7-1.6.3-.3 1.4-2.5 2.4-5 3.4-8.7 11.8-30.5 12-31.5.2-.6.6-1.7.9-2.5.4-.8 2.6-8.3 5.1-16.5 3.8-13 5.1-17.6 6.2-22 .1-.6.9-3.9 1.8-7.5 1.7-6.7 1.9-7.6 3.1-14.5 1-5.6 1.3-7 1.6-7 .1 0 .3-.9.4-2 .5-4.2 1.4-10.4 1.9-12.7.7-2.9 1.4-8.4 2.1-15 .3-2.9.8-6.9 1-8.9.2-2 .7-8.1 1.1-13.5.3-5.5.8-10.2 1.1-10.7.2-.4-.2-.7-.9-.7-1 0-1-.2-.1-.8.9-.6 1.1-6.2.9-22.7-.3-12.1-.7-23.3-1.1-24.9-.3-1.5-.8-4.7-1-7-.6-7.1-5.9-32.2-7.5-36.1-.5-1.1-1.4-3.8-2-6-4.1-14-19.6-49.3-22.2-50.3-1.4-.6-.9-5 1-8.4 4.1-7.4 14.1-35.2 15.6-43.3.3-1.7 1-4.8 1.5-7.1.6-2.2 1.3-5.8 1.6-8 .2-2.1.7-5 1-6.4 3.1-15.2 2.1-46.3-2.1-65.4-.3-1.1-.7-3.2-1-4.4-1.2-6.1-5-18.9-7.1-24.2-.3-.8-.8-2.4-1-3.5-.2-1-.7-2.2-1.1-2.5-.4-.3-.8-1.2-1-2-1.4-6.3-21.9-42.6-27.5-48.8-1.1-1.2-1.6-2.2-1.1-2.2s.4-.4-.2-.8c-.6-.4-3-3.4-5.5-6.7-2.4-3.3-4.6-6.2-4.9-6.5-.3-.3-2.5-3-5-6-2.4-3-5.7-6.7-7.2-8.3-1.5-1.5-2.8-2.9-2.8-3.1 0-1.3-26.3-26.4-30.3-29-7.1-4.4-19.4-2.5-24.1 3.7-3.9 5.1-4.7 8.4-5.1 20.7-.6 16.5-1.7 28.5-2.5 28.5-.2 0-.5 2.9-1.3 9.5-.1 1.4-.5 2.9-.9 3.5-.3.5-.9 2.8-1.2 4.9-.4 2.2-1.4 6.5-2.3 9.5-.9 3.1-1.8 6-1.9 6.6-.6 2.8-4.8 14.2-5.7 15.2-.5.7-.7 1.3-.4 1.3.9 0-10.7 25.6-12.3 27-.3.3-1.4 2.1-2.4 4-1.1 1.9-2.4 4.4-3 5.4-.6 1.1-1.4 2.5-1.9 3-2.6 3.7-5.7 8.8-5.7 9.6 0 .4-.4 1-.9 1.2-.5.1-3.3 3.4-6.2 7.3-10.5 13.8-9.9 13.4-18.7 12.7-14.4-1.2-34.3-.7-49.7 1.2-8.9 1.1-33.3 6.9-36.8 8.8-1.2.6-2.4 1.1-2.7 1-1.3-.2-9 2.3-9 3 0 .4-.8.8-1.7.8-2.3 0-28.5 13-35.1 17.4-3 2-5.7 3.6-6.2 3.6s-1 .3-1.2.7c-.1.5-2.5 2.4-5.3 4.3-2.7 1.9-5.5 3.9-6.2 4.5-.7.5-1.8 1.4-2.5 2-8.3 6.3-21.5 18.8-29.6 27.8-4.8 5.5-15.2 19.5-15.2 20.6 0 .5-.4 1.1-.9 1.3-.5.1-2.1 2.3-3.5 4.8-4 6.9-15.9 31.3-15.9 32.7 0 .7-.4 1.3-.9 1.3-.4 0-.7.3-.6.7 0 .5-.1 1.5-.5 2.3-1.3 3.4-8.1 24.6-8.3 26-.1.8-.7 2.8-1.3 4.5-.9 2.4-7.8 27.1-9.6 34.5-.2.8-.4 1.5-.5 1.5-.1 0-.3.7-.5 1.6-2 10.7-17.6 46.3-20.7 47.7-.5.2-.8 1-.8 1.8s-.5 1.4-1 1.4c-.6 0-1.4.8-1.7 1.7-2.4 6.7-22.1 27.3-34.4 36.3-3.6 2.5-4.9 3-7.8 2.4-2-.3-4.3-.7-5.1-.8-4.2-.6-9.8-2.1-12.6-3.2-1.7-.7-3.4-1-3.8-.7-.3.4-.6.1-.6-.5 0-.7-.7-1.2-1.6-1.2-3.7 0-19.3-9.4-26.8-16-7.5-6.7-8.3-7.5-13.9-15-7-9.2-14.6-24.3-16.3-32.5-.1-.6-.8-3.3-1.4-6-1.5-6.2-2-26.5-.9-36.5 1.2-10.7 2-16.3 2.4-17 .2-.3.6-2.6 1-5 .3-2.5.8-5.3 1.1-6.2.4-1.4.7-2.8 1.7-7.3.2-.6.5-1.5.9-2 .3-.6.9-2.6 1.3-4.5s1.2-4.1 1.7-4.8c.6-.6.8-1.2.4-1.2-.5 0 1.7-6.4 4.3-12.5 2.9-6.7 8.3-18.2 9.1-19.5.6-.8 1.6-2.6 2.2-4 3.6-7.4 15.8-25.3 24.3-35.4 7.9-9.5 22.7-23.7 31.7-30.6 1.1-.8 3.2-2.5 4.8-3.8 1.5-1.2 3.2-2.2 3.8-2.2.5 0 1.2-.7 1.6-1.5.3-.8 1.2-1.5 2.1-1.5.8 0 1.5-.5 1.5-1 0-.6.7-1 1.5-1s1.5-.5 1.5-1c0-.6.7-1 1.5-1s1.5-.4 1.5-.9.8-1.1 1.8-1.4c2.4-.8 9.6-5 10.4-6.2.4-.6.8-.6.8-.1s.8.2 1.8-.6c1.6-1.5 6.3-3.4 7-2.9.2.1 1-.6 1.8-1.6.7-1 1.4-1.5 1.4-1 0 .4 1.5 0 3.3-1 3.2-1.7 3.8-1.9 5.8-2.2.5 0 .8-.5.5-1-.4-.5.3-.7 1.4-.4 1.1.3 2 .1 2-.4s.6-1 1.3-1.1c.6 0 2.3-.3 3.7-.6 1.3-.3 4-.8 6-1.1 2-.3 4.5-.7 5.5-.9 4.3-.8 11.1-1.9 13.2-2.2 1.3-.1 4.1-.5 6.3-.9s4.3-.7 4.7-.7c.5 0 1.6-.4 2.7-1 1.4-.8 1.7-.7 1.1.3-.6.8-.4 1 .4.5.7-.5 2.4-1 3.9-1.2 4.7-.7 7.7-1.2 7.7-1.4 0-.2 5.4-1 7.5-1.1.8 0 2.2-.3 3-.6.8-.3 2.6-.7 4-.9 1.4-.1 3.5-.5 4.7-.8 1.1-.2 4.2-.8 6.7-1.1 2.5-.4 4.6-1 4.6-1.4 0-.3 1.6-.7 3.7-.8 2-.1 4.8-.6 6.2-1.2 1.4-.6 3.7-1.2 5.1-1.4 1.4-.2 3.2-.7 4-1 1.6-.7 9.2-2.6 10-2.6 1.1 0 16.9-6 23.5-8.9 12.9-5.6 27.8-14.5 36.4-21.7 4.3-3.6 16.5-16 20.1-20.5 9.3-11.5 19.6-31.9 23.9-47.2 3.3-11.7 4.5-21 4.5-35.3 0-13.3-1-23.7-3.4-32.5-2.9-11.2-8.5-25.7-12.3-31.8-1.2-2.1-2.9-4.9-3.6-6.5-.8-1.5-1.8-2.7-2.3-2.7-.4 0-.8-.6-.8-1.3 0-.6-1.1-2.5-2.5-4.1-1.4-1.6-2.5-3.2-2.5-3.7 0-.8-18.3-19.4-21.5-21.9-10.9-8.4-24-15.6-37.5-20.5-4.1-1.5-8.2-2.8-9-3-.8-.2-4.3-1-7.8-1.8-3.4-.9-6.5-1.6-6.7-1.6-.3-.1-.6-.1-.7-.2-1.3-.4-5-1-8.3-1.4-2.2-.2-5.3-.7-7-.9-3.4-.6-14.4-1.7-16.2-1.6-.7 0-1.9 0-2.5-.1-11.7-.5-52.1-.3-52.5.3-.2.5-1 .4-1.7-.1-.7-.6-1.5-.8-1.8-.5zM441 663.4c0 .2-.7.7-1.6 1-.8.3-1.2.2-.9-.4.6-1 2.5-1.4 2.5-.6zm-118.5 17.4c-.3.3-1.1 0-1.8-.7-.9-1-.8-1.1.6-.5 1 .3 1.5.9 1.2 1.2zm4 .2c.3.6-.1.7-.9.4-1.8-.7-2.1-1.4-.7-1.4.6 0 1.3.4 1.6 1z"/></svg>